<svg class="svg-icon" style="width: 1em; height: 1em;vertical-align: middle;fill: #964B00;overflow: hidden;" viewBox="0 0 1024 1024" version="1.1" xmlns="http://www.w3.org/2000/svg"><path d="M384 469.333333C407.466667 469.333333 426.666667 507.733333 426.666667 554.666667 426.666667 601.6 407.466667 640 384 640 360.533333 640 341.333333 601.6 341.333333 554.666667 341.333333 507.733333 360.533333 469.333333 384 469.333333M640 469.333333C663.466667 469.333333 682.666667 507.733333 682.666667 554.666667 682.666667 601.6 663.466667 640 640 640 616.533333 640 597.333333 601.6 597.333333 554.666667 597.333333 507.733333 616.533333 469.333333 640 469.333333M416 74.666667C416 74.666667 682.666667 170.666667 640 341.333333 640 341.333333 810.666667 341.333333 736 490.666667 736 490.666667 915.626667 509.44 865.28 654.506667 810.666667 705.28 797.866667 720.213333 746.666667 757.333333L866.56 688.64C910.933333 710.4 1039.786667 788.053333 896 896 725.333333 1024 469.333333 906.666667 384 906.666667 298.666667 906.666667 213.333333 938.666667 170.666667 938.666667 128 938.666667 85.333333 896 85.333333 810.666667 85.333333 725.333333 170.666667 682.666667 213.333333 682.666667 213.333333 682.666667 85.333333 554.666667 298.666667 469.333333 298.666667 469.333333 213.333333 341.333333 384 298.666667 384 298.666667 341.333333 256 384 213.333333 426.666667 170.666667 416 117.333333 416 74.666667M341.333333 725.333333C398.08 775.253333 455.253333 824.746667 512 824.746667 568.746667 824.746667 625.92 775.253333 682.666667 725.333333L341.333333 725.333333M384 426.666667C337.066667 426.666667 298.666667 483.84 298.666667 554.666667 298.666667 625.493333 337.066667 682.666667 384 682.666667 430.933333 682.666667 469.333333 625.493333 469.333333 554.666667 469.333333 483.84 430.933333 426.666667 384 426.666667M640 426.666667C593.066667 426.666667 554.666667 483.84 554.666667 554.666667 554.666667 625.493333 593.066667 682.666667 640 682.666667 686.933333 682.666667 725.333333 625.493333 725.333333 554.666667 725.333333 483.84 686.933333 426.666667 640 426.666667Z"  /></svg>